<svg height="512" viewBox="0 0 512.187 512.187" width="512" xmlns="http://www.w3.org/2000/svg"><path d="M105.769 378.026H1.221c-.623 0-1.127.505-1.127 1.127v27.504c0 .623.505 1.127 1.127 1.127h104.548c.622 0 1.127-.505 1.127-1.127v-27.504c0-.622-.505-1.127-1.127-1.127z" fill="#dd636e"/><path d="M1.221 315.022c-.623 0-1.127.505-1.127 1.127v27.504c0 .623.505 1.127 1.127 1.127h34.474v-29.758z" fill="#6bbef6"/><path d="M105.769 315.022H35.694v29.758h70.074c.622 0 1.127-.505 1.127-1.127v-27.504a1.125 1.125 0 0 0-1.126-1.127z" fill="#dd636e"/><path d="M1.221 252.017c-.623 0-1.127.505-1.127 1.127v27.504c0 .623.505 1.127 1.127 1.127h34.474v-29.758z" fill="#6bbef6"/><path d="M105.769 252.017H35.694v29.758h70.074c.622 0 1.127-.505 1.127-1.127v-27.504a1.126 1.126 0 0 0-1.126-1.127z" fill="#ecbe6b"/><path d="M35.694 189.013h35.601v29.758H35.694z" fill="#dd636e"/><path d="M1.221 189.013c-.623 0-1.127.505-1.127 1.127v27.504c0 .623.505 1.127 1.127 1.127h34.474v-29.758z" fill="#6bbef6"/><path d="M105.769 189.013H71.295v29.758h34.474c.622 0 1.127-.505 1.127-1.127V190.14c0-.622-.505-1.127-1.127-1.127z" fill="#80e29d"/><path d="M35.694 126.009h35.601v29.758H35.694z" fill="#6bbef6"/><path d="M1.221 126.009c-.623 0-1.127.505-1.127 1.127v27.504c0 .623.505 1.127 1.127 1.127h34.474v-29.758z" fill="#ecbe6b"/><path d="M105.769 126.009H71.295v29.758h34.474c.622 0 1.127-.505 1.127-1.127v-27.504c0-.623-.505-1.127-1.127-1.127z" fill="#dd636e"/><path d="M1.221 63.004c-.623 0-1.127.505-1.127 1.127v27.504c0 .623.505 1.127 1.127 1.127h34.474V63.004z" fill="#ecbe6b"/><path d="M105.769 63.004H35.694v29.758h70.074c.622 0 1.127-.505 1.127-1.127V64.131a1.126 1.126 0 0 0-1.126-1.127z" fill="#6bbef6"/><path d="M35.694 0h35.601v29.758H35.694z" fill="#ecbe6b"/><path d="M1.221 0C.598 0 .093.505.093 1.127v27.504c0 .623.505 1.127 1.127 1.127h34.474V0z" fill="#dd636e"/><path d="M105.769 0H71.295v29.758h34.474c.622 0 1.127-.505 1.127-1.127V1.127c0-.622-.505-1.127-1.127-1.127z" fill="#6bbef6"/><path d="M240.835 378.026H136.286c-.623 0-1.127.505-1.127 1.127v27.504c0 .623.505 1.127 1.127 1.127h104.548c.622 0 1.127-.505 1.127-1.127v-27.504a1.126 1.126 0 0 0-1.126-1.127zM240.835 315.022H136.286c-.623 0-1.127.505-1.127 1.127v27.504c0 .623.505 1.127 1.127 1.127h104.548c.622 0 1.127-.505 1.127-1.127v-27.504a1.125 1.125 0 0 0-1.126-1.127z" fill="#dd636e"/><path d="M170.76 252.017h35.601v29.758H170.76z" fill="#80e29d"/><path d="M136.286 252.017c-.623 0-1.127.505-1.127 1.127v27.504c0 .623.505 1.127 1.127 1.127h34.474v-29.758z" fill="#dd636e"/><path d="M240.834 252.017H206.36v29.758h34.474c.622 0 1.127-.505 1.127-1.127v-27.504a1.126 1.126 0 0 0-1.127-1.127z" fill="#6bbef6"/><path d="M170.76 189.013h35.601v29.758H170.76z" fill="#80e29d"/><path d="M136.286 189.013c-.623 0-1.127.505-1.127 1.127v27.504c0 .623.505 1.127 1.127 1.127h34.474v-29.758z" fill="#dd636e"/><path d="M240.834 189.013H206.36v29.758h34.474c.622 0 1.127-.505 1.127-1.127V190.14a1.126 1.126 0 0 0-1.127-1.127zM170.76 126.009h35.601v29.758H170.76z" fill="#ecbe6b"/><path d="M136.286 126.009c-.623 0-1.127.505-1.127 1.127v27.504c0 .623.505 1.127 1.127 1.127h34.474v-29.758z" fill="#80e29d"/><path d="M240.834 126.009H206.36v29.758h34.474c.622 0 1.127-.505 1.127-1.127v-27.504a1.126 1.126 0 0 0-1.127-1.127zM136.286 63.004c-.623 0-1.127.505-1.127 1.127v27.504c0 .623.505 1.127 1.127 1.127h70.074V63.004z" fill="#6bbef6"/><path d="M240.834 63.004H206.36v29.758h34.474c.622 0 1.127-.505 1.127-1.127V64.131a1.126 1.126 0 0 0-1.127-1.127z" fill="#dd636e"/><path d="M240.835 0H136.286c-.623 0-1.127.505-1.127 1.127v27.504c0 .622.505 1.127 1.127 1.127h104.548c.622 0 1.127-.505 1.127-1.127V1.127A1.126 1.126 0 0 0 240.835 0z" fill="#6bbef6"/><path d="M375.9 378.026H271.352c-.623 0-1.127.505-1.127 1.127v27.504c0 .623.505 1.127 1.127 1.127H375.9c.622 0 1.127-.505 1.127-1.127v-27.504a1.126 1.126 0 0 0-1.127-1.127zM375.9 315.022H271.352c-.623 0-1.127.505-1.127 1.127v27.504c0 .623.505 1.127 1.127 1.127H375.9c.622 0 1.127-.505 1.127-1.127v-27.504a1.126 1.126 0 0 0-1.127-1.127z" fill="#dd636e"/><path d="M271.352 252.017c-.623 0-1.127.505-1.127 1.127v27.504c0 .623.505 1.127 1.127 1.127h34.474v-29.758z" fill="#ecbe6b"/><path d="M375.9 252.017h-70.074v29.758H375.9c.622 0 1.127-.505 1.127-1.127v-27.504a1.126 1.126 0 0 0-1.127-1.127zM271.352 189.013c-.623 0-1.127.505-1.127 1.127v27.504c0 .623.505 1.127 1.127 1.127h70.074v-29.758z" fill="#6bbef6"/><path d="M375.9 189.013h-34.474v29.758H375.9c.622 0 1.127-.505 1.127-1.127V190.14c0-.622-.504-1.127-1.127-1.127z" fill="#dd636e"/><path d="M305.826 126.009h35.601v29.758h-35.601z" fill="#6bbef6"/><path d="M271.352 126.009c-.623 0-1.127.505-1.127 1.127v27.504c0 .623.505 1.127 1.127 1.127h34.474v-29.758zM375.9 126.009h-34.474v29.758H375.9c.622 0 1.127-.505 1.127-1.127v-27.504c0-.623-.504-1.127-1.127-1.127z" fill="#ecbe6b"/><path d="M271.352 63.004c-.623 0-1.127.505-1.127 1.127v27.504c0 .623.505 1.127 1.127 1.127h34.474V63.004z" fill="#80e29d"/><path d="M375.9 63.004h-70.074v29.758H375.9c.622 0 1.127-.505 1.127-1.127V64.131a1.126 1.126 0 0 0-1.127-1.127zM375.9 0H271.352c-.623 0-1.127.505-1.127 1.127v27.504c0 .622.505 1.127 1.127 1.127H375.9c.622 0 1.127-.505 1.127-1.127V1.127A1.126 1.126 0 0 0 375.9 0z" fill="#6bbef6"/><path d="M510.966 378.026H406.418c-.623 0-1.127.505-1.127 1.127v27.504c0 .623.505 1.127 1.127 1.127h104.548c.622 0 1.127-.505 1.127-1.127v-27.504c0-.622-.504-1.127-1.127-1.127zM510.966 315.022H406.418c-.623 0-1.127.505-1.127 1.127v27.504c0 .623.505 1.127 1.127 1.127h104.548c.622 0 1.127-.505 1.127-1.127v-27.504c0-.623-.504-1.127-1.127-1.127z" fill="#dd636e"/><path d="M440.892 252.017h35.601v29.758h-35.601z" fill="#80e29d"/><path d="M406.418 252.017c-.623 0-1.127.505-1.127 1.127v27.504c0 .623.505 1.127 1.127 1.127h34.474v-29.758z" fill="#6bbef6"/><path d="M510.966 252.017h-34.474v29.758h34.474c.622 0 1.127-.505 1.127-1.127v-27.504c0-.622-.504-1.127-1.127-1.127z" fill="#dd636e"/><path d="M406.418 189.013c-.623 0-1.127.505-1.127 1.127v27.504c0 .623.505 1.127 1.127 1.127h70.074v-29.758z" fill="#6bbef6"/><path d="M510.966 189.013h-34.474v29.758h34.474c.622 0 1.127-.505 1.127-1.127V190.14c0-.622-.504-1.127-1.127-1.127zM440.892 126.009h35.601v29.758h-35.601z" fill="#80e29d"/><path d="M406.418 126.009c-.623 0-1.127.505-1.127 1.127v27.504c0 .623.505 1.127 1.127 1.127h34.474v-29.758z" fill="#ecbe6b"/><path d="M510.966 126.009h-34.474v29.758h34.474c.622 0 1.127-.505 1.127-1.127v-27.504c0-.623-.504-1.127-1.127-1.127z" fill="#6bbef6"/><path d="M440.892 63.004h35.601v29.758h-35.601z" fill="#80e29d"/><path d="M406.418 63.004c-.623 0-1.127.505-1.127 1.127v27.504c0 .623.505 1.127 1.127 1.127h34.474V63.004z" fill="#6bbef6"/><path d="M510.966 63.004h-34.474v29.758h34.474c.622 0 1.127-.505 1.127-1.127V64.131c0-.622-.504-1.127-1.127-1.127zM406.418 0c-.623 0-1.127.505-1.127 1.127v27.504c0 .623.505 1.127 1.127 1.127h34.474V0z" fill="#dd636e"/><path d="M510.966 0h-70.074v29.758h70.074c.622 0 1.127-.505 1.127-1.127V1.127c0-.622-.504-1.127-1.127-1.127z" fill="#6bbef6"/><path d="M53.495 428.278c-15.696 0-28.467 12.771-28.467 28.467v47.715a7.726 7.726 0 1 0 15.452 0v-26.502h26.028v26.502a7.726 7.726 0 1 0 15.452 0v-47.715c.002-15.696-12.769-28.467-28.465-28.467zm-13.014 34.228v-5.761c0-7.176 5.838-13.014 13.014-13.014s13.014 5.838 13.014 13.014v5.761z" fill="#dd636e"/><path d="M188.56 512.187c-15.696 0-28.467-12.771-28.467-28.467v-26.975c0-15.696 12.771-28.467 28.467-28.467s28.467 12.771 28.467 28.467a7.726 7.726 0 1 1-15.452 0c0-7.176-5.838-13.014-13.014-13.014s-13.014 5.838-13.014 13.014v26.975c0 7.176 5.838 13.014 13.014 13.014s13.014-5.838 13.014-13.014a7.726 7.726 0 1 1 15.452 0c0 15.696-12.771 28.467-28.467 28.467z" fill="#ecbe6b"/><path d="M344.367 462.506h-20.74a7.726 7.726 0 1 0 0 15.452h13.014v5.762c0 7.176-5.838 13.014-13.014 13.014s-13.014-5.838-13.014-13.014v-26.975c0-7.176 5.838-13.014 13.014-13.014 4.187 0 8.014 1.94 10.499 5.322a7.728 7.728 0 0 0 12.453-9.151c-5.349-7.279-13.93-11.624-22.952-11.624-15.696 0-28.467 12.771-28.467 28.467v26.975c0 15.696 12.771 28.467 28.467 28.467s28.467-12.771 28.467-28.467v-13.488a7.726 7.726 0 0 0-7.727-7.726z" fill="#80e29d"/><path d="M479.432 428.278h-41.481a7.726 7.726 0 1 0 0 15.452h13.014v60.729a7.726 7.726 0 1 0 15.452 0V443.73h13.014c4.268 0 7.726-3.459 7.726-7.726s-3.457-7.726-7.725-7.726z" fill="#6bbef6"/></svg>